<?xml version="1.0" standalone="no"?>
<!DOCTYPE svg PUBLIC "-//W3C//DTD SVG 20010904//EN"
 "http://www.w3.org/TR/2001/REC-SVG-20010904/DTD/svg10.dtd">
<svg version="1.0" xmlns="http://www.w3.org/2000/svg"
 width="1024.000000pt" height="1024.000000pt" viewBox="0 0 1024.000000 1024.000000"
 preserveAspectRatio="xMidYMid meet">

<g transform="translate(0.000000,1024.000000) scale(0.100000,-0.100000)"
fill="#082c20" stroke="none">
<path d="M0 5120 l0 -5120 5120 0 5120 0 0 5120 0 5120 -5120 0 -5120 0 0
-5120z m7389 2460 c1 -150 -53 -266 -196 -420 -45 -49 -89 -103 -97 -119 -44
-84 7 -152 146 -196 80 -26 86 -26 179 -14 100 12 145 7 419 -47 125 -25 175
-27 257 -9 103 23 154 46 207 95 54 50 67 83 105 260 34 156 54 208 106 268
33 38 114 102 130 102 3 0 -1 -14 -10 -30 -37 -71 -35 -253 4 -420 16 -69 13
-218 -5 -281 -35 -118 -98 -211 -188 -279 -56 -42 -166 -100 -190 -100 -13 0
-16 -12 -16 -54 0 -30 -2 -61 -6 -69 -6 -16 105 -169 208 -287 77 -89 88 -108
88 -153 0 -40 -36 -151 -73 -224 -32 -61 -57 -81 -179 -135 -125 -56 -164 -56
-278 1 -81 40 -88 42 -150 36 -143 -13 -284 -69 -364 -143 -83 -77 -171 -258
-200 -408 -25 -132 -39 -593 -26 -844 22 -445 86 -715 238 -1015 45 -89 70
-123 127 -180 39 -38 87 -97 106 -130 39 -67 109 -218 109 -235 0 -7 -96 -10
-289 -10 l-289 0 -10 47 c-6 27 -14 77 -18 112 -8 72 -17 84 -96 132 -42 25
-48 33 -48 63 0 99 -60 306 -126 439 -28 55 -197 315 -247 379 -13 16 -20 14
-105 -22 -51 -22 -96 -40 -101 -40 -31 0 -24 -357 9 -505 33 -147 49 -186 99
-240 57 -61 103 -127 126 -180 16 -37 65 -174 65 -182 0 -2 -132 -3 -294 -3
l-293 0 -7 46 c-3 26 -6 73 -6 106 0 73 -8 89 -63 123 l-42 27 -1 152 c-1 213
-18 282 -142 586 l-59 145 -69 23 c-38 12 -77 25 -86 28 -17 5 -18 -8 -18
-185 l0 -191 -315 0 -315 0 0 386 c0 357 1 388 18 412 20 29 42 75 78 162 l23
55 1 -447 0 -448 195 0 195 0 0 1212 0 1213 101 -170 c55 -94 136 -228 178
-300 309 -516 563 -948 635 -1077 21 -38 39 -68 41 -68 2 0 27 44 55 98 247
462 506 808 755 1005 55 44 101 81 103 82 1 1 -28 12 -65 24 -127 42 -225 118
-274 214 -26 49 -53 157 -42 167 4 4 31 11 59 15 l51 7 8 -39 c18 -98 74 -176
156 -218 96 -49 158 -59 384 -60 228 0 204 5 333 -65 51 -27 75 -22 187 38
l70 37 32 84 c18 47 33 92 33 100 0 9 -28 48 -61 86 -34 39 -101 124 -151 190
l-89 120 6 66 7 65 -78 105 c-43 57 -101 127 -129 155 -48 49 -54 52 -125 63
-41 7 -122 21 -178 32 -58 11 -118 17 -137 13 l-32 -6 0 -76 c0 -91 -21 -143
-80 -191 -39 -32 -116 -61 -162 -61 -14 0 -73 14 -131 30 -105 30 -105 30
-190 15 -47 -8 -103 -21 -124 -30 -44 -19 -40 -29 27 -68 97 -57 207 -70 357
-41 45 8 85 14 90 12 4 -2 -40 -93 -99 -203 -59 -110 -133 -249 -165 -310 -32
-60 -84 -157 -116 -215 -31 -58 -101 -188 -155 -290 -54 -102 -106 -197 -115
-213 l-17 -27 -190 332 c-105 183 -248 432 -318 553 -70 121 -192 334 -272
473 l-146 252 -208 0 -209 0 0 -442 0 -443 -34 77 c-18 42 -45 97 -60 122
l-26 45 0 380 0 381 307 -2 306 -3 82 -145 c45 -80 160 -280 255 -445 285
-493 424 -736 466 -812 21 -40 42 -73 46 -73 4 0 27 37 51 83 248 460 407 762
407 769 0 4 -24 8 -52 8 -60 0 -141 20 -198 48 l-38 18 -118 -79 c-131 -87
-280 -177 -293 -177 -8 0 -61 81 -61 94 0 2 42 30 93 62 132 82 267 173 267
181 0 4 -25 33 -56 64 l-57 57 69 32 c38 18 111 45 162 62 l93 31 -34 36 c-99
104 -140 200 -140 326 -1 108 22 175 86 258 55 71 84 94 192 155 215 120 262
150 322 206 42 39 73 78 91 117 33 71 40 60 41 -61z m-4144 -539 c79 -36 132
-111 156 -219 l11 -52 120 0 c324 0 646 -96 922 -274 348 -225 604 -581 705
-981 149 -592 -6 -1179 -422 -1604 -156 -158 -291 -256 -482 -347 -164 -78
-155 -78 -155 -2 l0 63 118 58 c437 216 762 637 846 1099 41 221 42 357 6 574
-107 636 -588 1126 -1238 1264 -64 14 -155 23 -264 27 -163 6 -168 5 -168 -14
0 -28 -59 -143 -73 -143 -7 0 -29 15 -51 33 l-39 33 23 44 c15 30 25 69 28
116 4 62 1 80 -21 128 -27 58 -72 96 -115 96 -54 0 -122 -60 -167 -150 l-25
-50 -78 0 c-149 0 -273 -50 -495 -199 -91 -61 -145 -104 -161 -129 -14 -20
-37 -83 -52 -139 -14 -56 -34 -109 -43 -116 -9 -8 -105 -74 -214 -146 -177
-118 -197 -134 -191 -154 16 -57 46 -109 82 -149 22 -24 49 -62 61 -85 16 -32
34 -49 74 -70 48 -25 64 -27 232 -34 128 -5 210 -14 285 -31 258 -57 516 2
688 157 73 67 126 145 165 244 26 67 31 92 35 208 l5 131 131 1 c223 3 381
-31 561 -118 352 -172 589 -524 624 -928 42 -482 -224 -941 -660 -1137 l-85
-38 19 -87 c25 -109 30 -482 9 -601 -19 -107 -58 -250 -100 -361 l-35 -97 -73
-12 c-120 -19 -229 -87 -274 -169 l-11 -21 363 0 363 1 82 102 c242 300 414
618 508 936 19 65 31 84 100 162 44 49 81 87 82 85 9 -8 -44 -215 -88 -350
-109 -331 -308 -677 -558 -968 l-75 -88 -468 0 c-537 0 -486 -12 -447 103 54
162 187 280 356 318 l53 12 35 108 c38 116 82 325 72 335 -3 4 -49 1 -101 -5
-60 -7 -325 -11 -730 -11 l-636 0 -1 373 c0 204 -1 621 -2 925 -1 363 1 552 8
552 6 0 33 -6 60 -13 l50 -13 3 -852 2 -852 558 0 c496 0 655 6 770 26 l32 6
0 72 c0 98 -24 284 -50 387 -155 612 -601 1105 -1183 1308 -140 49 -273 72
-447 78 -242 7 -321 40 -407 167 -18 28 -51 73 -73 100 -24 31 -51 84 -69 137
-35 98 -39 144 -15 153 26 10 418 272 430 287 6 8 19 46 28 84 33 138 72 193
195 277 l64 43 1 100 c1 112 17 154 77 213 42 41 87 55 160 50 47 -3 69 -11
114 -42 30 -21 64 -54 76 -72 20 -32 24 -34 78 -34 52 0 59 2 69 25 21 46 106
127 157 151 61 29 134 31 190 5z m4371 -697 c44 -9 96 -26 117 -37 33 -19 181
-176 173 -184 -2 -2 -23 5 -47 16 -24 10 -75 22 -113 25 -38 4 -77 11 -88 17
-25 13 -58 68 -58 96 0 16 -14 32 -47 53 -55 34 -45 36 63 14z m-5039 -45
c-15 -12 -37 -39 -47 -60 -11 -21 -30 -48 -43 -60 -20 -19 -29 -20 -87 -13
-36 4 -80 6 -99 5 l-34 -1 35 42 c19 23 47 51 61 62 31 23 121 44 192 45 l50
0 -28 -20z m5453 -1941 l0 -958 -315 0 -315 0 0 748 c0 718 1 752 20 828 11
43 37 113 58 154 l37 75 3 -842 2 -843 195 0 195 0 0 924 0 925 60 -26 60 -26
0 -959z m-5054 637 l51 -35 1 -153 c0 -83 1 -286 1 -450 l1 -299 314 4 315 3
14 -56 14 -57 -36 -6 c-20 -3 -197 -6 -395 -6 l-359 0 6 73 c4 39 7 285 7 545
0 259 3 472 7 472 4 0 31 -16 59 -35z m2247 -1717 c-15 -81 -56 -226 -89 -317
l-37 -99 -73 -12 c-120 -19 -229 -87 -274 -169 l-11 -21 363 0 363 1 85 105
c103 127 242 332 295 437 25 48 46 77 56 77 10 0 25 -19 38 -51 21 -48 22 -53
6 -91 -39 -98 -207 -339 -357 -515 l-72 -83 -468 0 c-537 0 -486 -12 -447 103
54 162 187 280 356 318 l53 12 34 106 c19 58 40 134 47 169 l13 62 63 0 63 0
-7 -32z"/>
<path d="M7032 7237 c-122 -69 -180 -120 -222 -198 -82 -155 -17 -334 164
-447 170 -106 283 -116 336 -30 29 48 22 132 -12 142 -138 40 -190 62 -240
101 -137 107 -131 246 16 402 95 102 92 104 -42 30z"/>
<path d="M8502 6996 c-24 -121 -112 -238 -216 -287 -32 -15 -93 -36 -135 -45
-42 -9 -82 -18 -89 -20 -10 -3 -4 -17 18 -47 18 -23 42 -57 53 -75 27 -39 47
-38 155 14 91 44 160 112 204 201 30 61 33 77 36 174 5 127 -9 171 -26 85z"/>
<path d="M5732 4699 l3 -793 62 -20 c35 -11 65 -17 68 -15 3 3 0 32 -7 65 -19
98 -14 304 12 424 12 57 23 106 24 108 2 1 28 -7 58 -19 l55 -21 -19 -91 c-52
-246 -12 -509 121 -805 79 -174 109 -305 117 -506 4 -119 4 -120 34 -140 45
-31 70 -91 70 -164 l0 -62 155 0 c85 0 155 2 155 4 0 20 -79 133 -118 168 -41
36 -53 55 -75 123 -47 140 -67 259 -73 430 -9 234 23 442 93 612 l28 68 68 3
68 3 -17 -38 c-34 -79 -87 -234 -81 -239 9 -9 174 81 235 128 136 105 256 285
315 473 33 106 55 239 67 410 5 77 16 165 25 195 26 96 21 93 -78 -38 -136
-181 -258 -375 -387 -620 l-75 -142 -67 0 -67 0 -39 68 c-36 62 -406 688 -497
842 -22 37 -80 135 -128 218 -49 84 -93 155 -98 158 -5 3 -8 -315 -7 -787z"/>
<path d="M7116 4155 c-11 -16 -40 -61 -64 -100 -25 -38 -90 -114 -144 -167
l-100 -97 90 -128 c184 -264 252 -417 302 -684 10 -49 15 -59 41 -69 61 -26
109 -107 109 -187 0 -64 -2 -63 161 -63 82 0 149 3 149 7 0 22 -91 141 -140
183 -52 45 -66 67 -135 207 -149 304 -222 600 -242 983 l-8 145 -19 -30z"/>
<path d="M2511 6887 c-37 -19 -63 -60 -68 -111 -3 -25 -2 -46 2 -46 5 0 27 11
49 23 23 13 66 34 98 47 62 25 65 38 15 69 -47 28 -69 32 -96 18z"/>
<path d="M3467 6033 c-8 -98 -45 -218 -94 -303 -48 -82 -189 -224 -270 -271
-34 -20 -101 -49 -150 -65 -98 -32 -104 -35 -85 -41 33 -12 256 -153 327 -207
161 -122 348 -327 470 -514 58 -91 165 -312 201 -417 15 -44 28 -81 30 -83 6
-9 145 64 223 118 140 96 248 221 325 375 84 170 113 316 103 520 -12 254
-101 462 -276 647 -183 193 -416 300 -687 315 l-111 6 -6 -80z"/>
</g>
</svg>
